<?xml version="1.0" encoding="UTF-8" standalone="no"?>
<!-- Created with Inkscape (http://www.inkscape.org/) -->

<svg
   xmlns:dc="http://purl.org/dc/elements/1.1/"
   xmlns:cc="http://creativecommons.org/ns#"
   xmlns:rdf="http://www.w3.org/1999/02/22-rdf-syntax-ns#"
   xmlns:svg="http://www.w3.org/2000/svg"
   xmlns="http://www.w3.org/2000/svg"
   xmlns:sodipodi="http://sodipodi.sourceforge.net/DTD/sodipodi-0.dtd"
   xmlns:inkscape="http://www.inkscape.org/namespaces/inkscape"
   width="64.711784mm"
   height="65.004593mm"
   viewBox="0 0 64.711784 65.004593"
   version="1.1"
   id="svg80"
   inkscape:export-filename="/tmp/crossminer-logo-w.svg.png"
   inkscape:export-xdpi="78"
   inkscape:export-ydpi="78"
   inkscape:version="0.92.1 r15371"
   sodipodi:docname="crossminer-logo-w.svg">
  <defs
     id="defs74" />
  <sodipodi:namedview
     id="base"
     pagecolor="#ffffff"
     bordercolor="#666666"
     borderopacity="1.0"
     inkscape:pageopacity="0.0"
     inkscape:pageshadow="2"
     inkscape:zoom="3.2521101"
     inkscape:cx="122.28999"
     inkscape:cy="122.84332"
     inkscape:document-units="mm"
     inkscape:current-layer="layer1"
     showgrid="false"
     inkscape:window-width="1920"
     inkscape:window-height="1016"
     inkscape:window-x="0"
     inkscape:window-y="27"
     inkscape:window-maximized="1"
     fit-margin-top="0"
     fit-margin-left="0"
     fit-margin-right="0"
     fit-margin-bottom="0" />
  <metadata
     id="metadata77">
    <rdf:RDF>
      <cc:Work
         rdf:about="">
        <dc:format>image/svg+xml</dc:format>
        <dc:type
           rdf:resource="http://purl.org/dc/dcmitype/StillImage" />
        <dc:title></dc:title>
      </cc:Work>
    </rdf:RDF>
  </metadata>
  <g
     inkscape:label="Capa 1"
     inkscape:groupmode="layer"
     id="layer1"
     transform="translate(-65.161963,-103.47985)">
    <path
       inkscape:connector-curvature="0"
       id="path32"
       style="display:inline;fill:#3270bb;fill-opacity:1;fill-rule:nonzero;stroke:none;stroke-width:0.03527778"
       d="m 94.531768,140.64463 c 0.51506,3.02465 3.21734,3.44315 5.08529,3.44315 1.769892,0 4.472172,-0.51552 4.472172,-2.86495 0,-4.89228 -13.677202,-1.73782 -13.677202,-10.3318 0,-4.73145 4.44112,-6.95219 8.59367,-6.95219 4.794962,0 9.203272,2.09303 9.203272,7.40304 L 103.317,130.6335 c -0.61172,-2.67158 -2.96016,-2.76719 -4.538142,-2.76719 -1.60866,0 -3.47521,0.67593 -3.47521,2.60633 0,1.70568 1.09396,2.09267 6.855532,3.47666 1.70568,0.41822 6.82202,1.48043 6.82202,6.69533 0,4.21527 -3.28189,7.36988 -9.557812,7.36988 -5.14915,0 -9.78535,-2.51146 -9.78535,-8.17453 l 4.89373,0.80465" />
    <path
       inkscape:connector-curvature="0"
       id="path34"
       style="display:inline;fill:#3270bb;fill-opacity:1;fill-rule:nonzero;stroke:none;stroke-width:0.03527778"
       d="m 115.42433,140.64463 c 0.5147,3.02465 3.21769,3.44315 5.08353,3.44315 1.772,0 4.47569,-0.51552 4.47569,-2.86495 0,-4.89228 -13.68072,-1.73782 -13.68072,-10.3318 0,-4.73145 4.44253,-6.95219 8.59366,-6.95219 4.79672,0 9.20609,2.09303 9.20609,7.40304 l -4.89161,-0.70838 c -0.61172,-2.67158 -2.96228,-2.76719 -4.5392,-2.76719 -1.60866,0 -3.47521,0.67593 -3.47521,2.60633 0,1.70568 1.09396,2.09267 6.85518,3.47666 1.70533,0.41822 6.82201,1.48043 6.82201,6.69533 0,4.21527 -3.28153,7.36988 -9.55922,7.36988 -5.14949,0 -9.78358,-2.51146 -9.78358,-8.17453 l 4.89338,0.80465" />
    <path
       inkscape:connector-curvature="0"
       id="path36"
       style="display:inline;fill:#3270bb;fill-opacity:1;fill-rule:nonzero;stroke:none;stroke-width:0.03527778"
       d="m 83.667278,133.77813 c 0.20813,0.66657 0.32279,1.37308 0.32279,2.10153 0,3.83078 -3.12103,7.01749 -6.951489,7.01749 -3.829403,0 -7.016044,-3.18671 -7.016044,-7.01749 0,-3.82975 3.186641,-7.0485 7.016044,-7.0485 1.1684,0 2.268009,0.30304 3.237089,0.82727 l 2.99544,-3.90384 c -1.81857,-1.12395 -3.951468,-1.78259 -6.232529,-1.78259 -6.564842,0 -11.876616,5.31001 -11.876616,11.90766 0,6.56618 5.311774,11.87771 11.876616,11.87771 6.533799,0 11.907309,-5.31153 11.907309,-11.87771 0,-2.71074 -0.91828,-5.19641 -2.44052,-7.19349 l -2.83809,5.09196" />
    <path
       inkscape:connector-curvature="0"
       id="path38"
       style="display:inline;fill:#3270bb;fill-opacity:1;fill-rule:nonzero;stroke:none;stroke-width:0.03527778"
       d="m 75.176618,120.55182 c 5.25074,-8.76759 14.8396,-14.63746 25.801462,-14.63746 10.9608,0 20.53766,5.87305 25.78982,14.63746 h 0.013 c -5.49168,-10.16176 -16.22812,-17.07197 -28.589812,-17.07197 -12.3645,0 -23.114346,6.90703 -28.606038,17.07197 h 5.591528" />
    <path
       inkscape:connector-curvature="0"
       id="path40"
       style="display:inline;fill:#3270bb;fill-opacity:1;fill-rule:nonzero;stroke:none;stroke-width:0.03527778"
       d="m 75.174854,151.41275 c 5.250744,8.76624 14.839594,14.63752 25.801466,14.63752 10.9608,0 20.53766,-5.87484 25.78981,-14.63752 h 0.0148 c -5.49275,10.16084 -16.22954,17.07169 -28.591232,17.07169 -12.3645,0 -23.115053,-6.90743 -28.606392,-17.07169 h 5.591528" />
    <path
       inkscape:connector-curvature="0"
       id="path42"
       style="display:inline;fill:#f68712;fill-opacity:1;fill-rule:nonzero;stroke:none;stroke-width:0.03527778"
       d="m 88.672488,121.37026 -11.479039,14.80662 -5.380214,-3.44647 5.163961,8.95132 11.770432,-19.59321 -0.0751,-0.71826" />
    <path
       inkscape:connector-curvature="0"
       id="path44"
       style="display:inline;fill:#f68712;fill-opacity:1;fill-rule:nonzero;stroke:none;stroke-width:0.03527778"
       d="m 119.37579,120.55182 c -4.21005,-6.40256 -11.89602,-10.68881 -20.684422,-10.68881 -8.78663,0 -16.46484,4.28907 -20.674889,10.68881 h -0.01235 c 4.403729,-7.42068 13.011859,-12.46752 22.921391,-12.46752 9.91235,0 18.53,5.04402 22.93267,12.46752 h -4.4824" />
    <path
       inkscape:connector-curvature="0"
       id="path46"
       style="display:inline;fill:#f68712;fill-opacity:1;fill-rule:nonzero;stroke:none;stroke-width:0.03527778"
       d="m 119.37403,151.41275 c -4.2097,6.40154 -11.89602,10.68916 -20.684422,10.68916 -8.78664,0 -16.46449,-4.28971 -20.674893,-10.68916 h -0.01199 c 4.404073,7.42004 13.011153,12.46685 22.921025,12.46685 9.91306,0 18.53071,-5.04321 22.93268,-12.46685 h -4.4824" />
  </g>
</svg>
