<?xml version="1.0" encoding="UTF-8" standalone="no"?>
<!-- Created with Inkscape (http://www.inkscape.org/) -->

<svg
   xmlns:dc="http://purl.org/dc/elements/1.1/"
   xmlns:cc="http://creativecommons.org/ns#"
   xmlns:rdf="http://www.w3.org/1999/02/22-rdf-syntax-ns#"
   xmlns:svg="http://www.w3.org/2000/svg"
   xmlns="http://www.w3.org/2000/svg"
   xmlns:sodipodi="http://sodipodi.sourceforge.net/DTD/sodipodi-0.dtd"
   xmlns:inkscape="http://www.inkscape.org/namespaces/inkscape"
   version="1.1"
   id="svg2"
   xml:space="preserve"
   width="801.25336"
   height="245.69333"
   viewBox="0 0 801.25336 245.69333"
   sodipodi:docname="CROSSMINER logo.svg"
   inkscape:version="0.92.1 r15371"><metadata
     id="metadata8"><rdf:RDF><cc:Work
         rdf:about=""><dc:format>image/svg+xml</dc:format><dc:type
           rdf:resource="http://purl.org/dc/dcmitype/StillImage" /><dc:title></dc:title></cc:Work></rdf:RDF></metadata><defs
     id="defs6" /><sodipodi:namedview
     pagecolor="#ffffff"
     bordercolor="#666666"
     borderopacity="1"
     objecttolerance="10"
     gridtolerance="10"
     guidetolerance="10"
     inkscape:pageopacity="0"
     inkscape:pageshadow="2"
     inkscape:window-width="816"
     inkscape:window-height="480"
     id="namedview4"
     showgrid="false"
     inkscape:zoom="0.5753486"
     inkscape:cx="400.62668"
     inkscape:cy="122.84666"
     inkscape:window-x="0"
     inkscape:window-y="27"
     inkscape:window-maximized="0"
     inkscape:current-layer="g10" /><g
     id="g10"
     inkscape:groupmode="layer"
     inkscape:label="ink_ext_XXXXXX"
     transform="matrix(1.3333333,0,0,-1.3333333,0,245.69333)"><g
       id="g12"
       transform="scale(0.1)"><path
         d="M 330.281,593.898 C 147.82,593.898 0,741.719 0,924.23 c 0,180.65 147.82,330.25 330.281,330.25 125.012,0 230.813,-69.35 286.457,-168.78 -55.644,-29.21 -60.195,-31.94 -122.265,-62.03 -31.883,55.64 -93.946,93.96 -164.192,93.96 -106.726,0 -193.426,-87.58 -193.426,-193.4 0,-106.769 86.7,-193.468 193.426,-193.468 72.989,0 136.821,39.238 169.68,101.308 C 562.02,800.141 563.84,796.48 622.227,770 566.582,665.078 458.906,593.898 330.281,593.898"
         style="fill:#243c74;fill-opacity:1;fill-rule:nonzero;stroke:none"
         id="path14"
         inkscape:connector-curvature="0" /><path
         d="M 833.418,1135.88 V 939.711 h 111.277 c 68.435,0 125.015,15.527 125.015,98.559 0,84.84 -56.58,97.61 -125.015,97.61 z M 1060.6,836.621 1243.06,594.82 h -175.17 l -164.23,234.5 h -70.242 v -234.5 h -144.16 v 652.36 h 293.75 c 164.242,0 227.182,-103.09 227.182,-208.91 0,-88.512 -46.54,-177.918 -155.07,-201.649 h 5.48"
         style="fill:#243c74;fill-opacity:1;fill-rule:nonzero;stroke:none"
         id="path16"
         inkscape:connector-curvature="0" /><path
         d="m 3193.21,1247.18 h 186.13 l 150.52,-287.383 147.8,287.383 h 188.86 V 595.762 h -134.11 v 460.728 h -1.86 L 3585.52,759.961 H 3475.11 L 3331,1051.93 h -1.82 V 595.762 h -135.97 v 651.418"
         style="fill:#243c74;fill-opacity:1;fill-rule:nonzero;stroke:none"
         id="path18"
         inkscape:connector-curvature="0" /><path
         d="m 3979.38,1247.18 h 143.27 V 595.762 h -143.27 v 651.418"
         style="fill:#243c74;fill-opacity:1;fill-rule:nonzero;stroke:none"
         id="path20"
         inkscape:connector-curvature="0" /><path
         d="M 4343.58,1045.56 V 594.82 H 4218.62 V 1249 h 164.19 L 4673.87,842.09 V 1249 H 4795.2 V 594.82 h -121.33 l -330.29,450.74"
         style="fill:#243c74;fill-opacity:1;fill-rule:nonzero;stroke:none"
         id="path22"
         inkscape:connector-curvature="0" /><path
         d="M 5599.79,1135.88 V 939.711 h 111.34 c 68.43,0 125,15.527 125,98.559 0,84.84 -56.57,97.61 -125,97.61 z M 5826.97,836.621 6009.43,594.82 h -175.1 l -164.24,234.5 h -70.3 v -234.5 h -144.1 v 652.36 h 293.79 c 164.19,0 227.13,-103.09 227.13,-208.91 0,-88.512 -46.48,-177.918 -155.07,-201.649 h 5.43"
         style="fill:#243c74;fill-opacity:1;fill-rule:nonzero;stroke:none"
         id="path24"
         inkscape:connector-curvature="0" /><path
         d="m 5334.1,1129.48 h 41.76 v 120.44 h -506.33 v -120.44 h 147.74 316.83"
         style="fill:#243c74;fill-opacity:1;fill-rule:nonzero;stroke:none"
         id="path26"
         inkscape:connector-curvature="0" /><path
         d="M 4869.53,717.109 V 596.68 h 506.33 v 120.429 h -367.62 -138.71"
         style="fill:#243c74;fill-opacity:1;fill-rule:nonzero;stroke:none"
         id="path28"
         inkscape:connector-curvature="0" /><path
         d="m 5332.54,855.781 v 126.84 h -463.01 v -126.84 h 147.29 315.72"
         style="fill:#243c74;fill-opacity:1;fill-rule:nonzero;stroke:none"
         id="path30"
         inkscape:connector-curvature="0" /><path
         d="m 2112.5,789.16 c 14.6,-85.738 91.2,-97.601 144.15,-97.601 50.17,0 126.77,14.613 126.77,81.211 0,138.679 -387.7,49.261 -387.7,292.87 0,134.12 125.89,197.07 243.6,197.07 135.92,0 260.88,-59.33 260.88,-209.85 l -138.67,20.08 c -17.34,75.73 -83.91,78.44 -128.64,78.44 -45.6,0 -98.51,-19.16 -98.51,-73.88 0,-48.35 31.01,-59.32 194.33,-98.551 48.35,-11.855 193.38,-41.965 193.38,-189.789 0,-119.488 -93.03,-208.91 -270.93,-208.91 -145.96,0 -277.38,71.191 -277.38,231.719 L 2112.5,789.16"
         style="fill:#3270bb;fill-opacity:1;fill-rule:nonzero;stroke:none"
         id="path32"
         inkscape:connector-curvature="0" /><path
         d="m 2704.73,789.16 c 14.59,-85.738 91.21,-97.601 144.1,-97.601 50.23,0 126.87,14.613 126.87,81.211 0,138.679 -387.8,49.261 -387.8,292.87 0,134.12 125.93,197.07 243.6,197.07 135.97,0 260.96,-59.33 260.96,-209.85 l -138.66,20.08 c -17.34,75.73 -83.97,78.44 -128.67,78.44 -45.6,0 -98.51,-19.16 -98.51,-73.88 0,-48.35 31.01,-59.32 194.32,-98.551 48.34,-11.855 193.38,-41.965 193.38,-189.789 0,-119.488 -93.02,-208.91 -270.97,-208.91 -145.97,0 -277.33,71.191 -277.33,231.719 l 138.71,-22.809"
         style="fill:#3270bb;fill-opacity:1;fill-rule:nonzero;stroke:none"
         id="path34"
         inkscape:connector-curvature="0" /><path
         d="m 1804.53,983.801 c 5.9,-18.895 9.15,-38.922 9.15,-59.571 0,-108.589 -88.47,-198.921 -197.05,-198.921 -108.55,0 -198.88,90.332 -198.88,198.921 0,108.56 90.33,199.8 198.88,199.8 33.12,0 64.29,-8.59 91.76,-23.45 l 84.91,110.66 c -51.55,31.86 -112.01,50.53 -176.67,50.53 -186.09,0 -336.66,-150.52 -336.66,-337.54 0,-186.128 150.57,-336.691 336.66,-336.691 185.21,0 337.53,150.563 337.53,336.691 0,76.84 -26.03,147.3 -69.18,203.91 l -80.45,-144.339"
         style="fill:#3270bb;fill-opacity:1;fill-rule:nonzero;stroke:none"
         id="path36"
         inkscape:connector-curvature="0" /><path
         d="m 1563.85,1358.72 c 148.84,248.53 420.65,414.92 731.38,414.92 310.7,0 582.17,-166.48 731.05,-414.92 h 0.37 c -155.67,288.05 -460.01,483.93 -810.42,483.93 -350.49,0 -655.21,-195.79 -810.88,-483.93 h 158.5"
         style="fill:#3270bb;fill-opacity:1;fill-rule:nonzero;stroke:none"
         id="path38"
         inkscape:connector-curvature="0" /><path
         d="M 1563.8,483.922 C 1712.64,235.43 1984.45,69 2295.18,69 c 310.7,0 582.17,166.531 731.05,414.922 h 0.42 C 2870.95,195.898 2566.6,0 2216.19,0 1865.7,0 1560.96,195.801 1405.3,483.922 h 158.5"
         style="fill:#3270bb;fill-opacity:1;fill-rule:nonzero;stroke:none"
         id="path40"
         inkscape:connector-curvature="0" /><path
         d="m 1946.41,1335.52 -325.39,-419.715 -152.51,97.695 146.38,-253.738 333.65,555.398 -2.13,20.36"
         style="fill:#f68712;fill-opacity:1;fill-rule:nonzero;stroke:none"
         id="path42"
         inkscape:connector-curvature="0" /><path
         d="m 2816.74,1358.72 c -119.34,181.49 -337.21,302.99 -586.33,302.99 -249.07,0 -466.72,-121.58 -586.06,-302.99 H 1644 c 124.83,210.35 368.84,353.41 649.74,353.41 280.98,0 525.26,-142.98 650.06,-353.41 h -127.06"
         style="fill:#f68712;fill-opacity:1;fill-rule:nonzero;stroke:none"
         id="path44"
         inkscape:connector-curvature="0" /><path
         d="m 2816.69,483.922 c -119.33,-181.461 -337.21,-303 -586.33,-303 -249.07,0 -466.71,121.598 -586.06,303 h -0.34 c 124.84,-210.332 368.82,-353.391 649.73,-353.391 281,0 525.28,142.957 650.06,353.391 h -127.06"
         style="fill:#f68712;fill-opacity:1;fill-rule:nonzero;stroke:none"
         id="path46"
         inkscape:connector-curvature="0" /></g></g></svg>